# xmcd CD database file
#
# Track frame offsets:
#	182
#	19467
#	37087
#
# Disc length: 770 seconds
#
# Revision: 0
# Processed by: cddbd v1.5PL3 Copyright (c) Steve Scherf et al.
# Submitted via: CDex 1.51
#
DISCID=23030003
DTITLE=TLC - diggin' on you
DYEAR=1900
DGENRE=R&B
TTITLE0=diggin' on you(original radio edit)
TTITLE1=diggin' on you(master 7" mix)
TTITLE2=diggin' on you(live version)
EXTD=
EXTT0=
EXTT1=
EXTT2=
PLAYORDER=
